<?xml version="1.0" encoding="UTF-8"?>
<svg id="Layer_2" xmlns="http://www.w3.org/2000/svg" version="1.1" viewBox="0 0 683.14 166.9">
  <!-- Generator: Adobe Illustrator 30.1.0, SVG Export Plug-In . SVG Version: 2.1.1 Build 136)  -->
  <defs>
    <style>
      .st0 {
        fill: #fff;
      }
    </style>
  </defs>
  <g id="Components">
    <g id="c2cdae00-0031-4e68-848d-d339a0de75f9_5">
      <g id="logoMark">
        <polygon id="logoMark_PathItem_" class="st0" points="167.25 69.97 167.25 105.61 90.95 149.69 90.95 114.05 167.25 69.97"/>
        <path id="logoMark_PathItem_-2" class="st0" d="M76.35,114.05v35.64L0,105.61v-35.64l34.5,19.9s.08.05.13.08l41.72,24.1h0Z"/>
        <polygon id="logoMark_PathItem_-3" class="st0" points="114.52 83.59 83.65 101.42 52.76 83.59 83.65 65.76 114.52 83.59"/>
        <polygon id="logoMark_PathItem_-4" class="st0" points="159.98 57.35 129.09 75.18 90.95 53.13 90.95 17.47 159.98 57.35"/>
        <polygon id="logoMark_PathItem_-5" class="st0" points="76.35 17.47 76.35 53.13 38.16 75.15 7.27 57.35 76.35 17.47"/>
      </g>
      <path class="st0" d="M198.74,56.11v-14.25h67.12v14.25h-25.02v67.48h-17.08V56.11h-25.02,0Z"/>
      <path class="st0" d="M273.62,123.58v-61.29h16.48v10.69h.64c1.12-3.8,2.99-6.68,5.63-8.64,2.63-1.96,5.67-2.93,9.1-2.93.85,0,1.77.05,2.75.16.98.11,1.85.25,2.59.44v15.08c-.8-.24-1.9-.45-3.31-.64-1.41-.19-2.7-.28-3.87-.28-2.5,0-4.73.54-6.68,1.62-1.96,1.08-3.5,2.57-4.63,4.49-1.13,1.92-1.7,4.12-1.7,6.62v34.68h-17Z"/>
      <path class="st0" d="M362.23,97.49v-35.2h17v61.29h-16.32v-11.13h-.64c-1.38,3.59-3.68,6.48-6.88,8.66-3.21,2.18-7.11,3.27-11.71,3.27-4.1,0-7.7-.93-10.81-2.79-3.11-1.86-5.54-4.51-7.28-7.94-1.74-3.43-2.63-7.54-2.65-12.33v-39.03h17v35.99c.03,3.62,1,6.48,2.91,8.58,1.92,2.1,4.48,3.15,7.7,3.15,2.05,0,3.96-.47,5.75-1.42,1.78-.94,3.23-2.35,4.33-4.21,1.1-1.86,1.64-4.16,1.62-6.9h0Z"/>
      <path class="st0" d="M424.1,124.78c-6.3,0-11.73-1.28-16.26-3.85-4.54-2.57-8.03-6.21-10.48-10.93-2.45-4.72-3.67-10.32-3.67-16.78s1.22-11.84,3.67-16.6c2.45-4.76,5.9-8.47,10.36-11.13,4.46-2.66,9.69-3.99,15.7-3.99,4.04,0,7.81.65,11.31,1.94,3.5,1.29,6.56,3.23,9.18,5.81,2.62,2.58,4.66,5.82,6.13,9.72,1.46,3.9,2.19,8.45,2.19,13.67v4.67h-51.76v-10.53h35.75c0-2.45-.53-4.62-1.6-6.5-1.06-1.89-2.53-3.37-4.41-4.45-1.88-1.08-4.05-1.62-6.52-1.62s-4.86.59-6.84,1.78c-1.98,1.18-3.53,2.77-4.65,4.75-1.12,1.98-1.69,4.18-1.72,6.6v10.02c0,3.03.56,5.65,1.7,7.86,1.13,2.21,2.73,3.91,4.81,5.11s4.54,1.8,7.38,1.8c1.89,0,3.62-.27,5.19-.8,1.57-.53,2.91-1.33,4.03-2.39,1.12-1.06,1.97-2.37,2.55-3.91l15.72,1.04c-.8,3.78-2.43,7.07-4.89,9.88-2.46,2.81-5.63,4.99-9.5,6.54-3.87,1.56-8.33,2.33-13.39,2.33h0Z"/>
      <path class="st0" d="M534.85,41.86v81.72h-11.33l-41.54-59.94h-.76v59.94h-12.33V41.86h11.41l41.58,60.02h.76v-60.02h12.21Z"/>
      <path class="st0" d="M563.08,123.58h-13.09l29.41-81.72h14.25l29.41,81.72h-13.09l-23.1-66.88h-.64l-23.14,66.88ZM565.27,91.58h42.46v10.38h-42.46v-10.38Z"/>
      <path class="st0" d="M682.13,63.33c-.43-3.78-2.18-6.71-5.27-8.8-3.09-2.09-6.97-3.13-11.65-3.13-3.35,0-6.25.53-8.7,1.58-2.45,1.05-4.34,2.49-5.69,4.31-1.34,1.82-2.02,3.89-2.02,6.21,0,1.94.46,3.62,1.38,5.03.92,1.41,2.13,2.59,3.63,3.53,1.5.94,3.12,1.73,4.85,2.35,1.73.63,3.39,1.14,4.99,1.54l7.98,2.08c2.61.64,5.28,1.5,8.02,2.59,2.74,1.09,5.28,2.53,7.62,4.31,2.34,1.78,4.24,3.99,5.69,6.62,1.45,2.63,2.17,5.79,2.17,9.46,0,4.63-1.19,8.74-3.57,12.33-2.38,3.59-5.83,6.42-10.34,8.5-4.51,2.08-9.96,3.11-16.34,3.11s-11.41-.97-15.88-2.91c-4.47-1.94-7.97-4.7-10.49-8.28-2.53-3.58-3.92-7.83-4.19-12.75h12.37c.24,2.95,1.2,5.41,2.89,7.36,1.69,1.96,3.86,3.41,6.5,4.35,2.65.94,5.55,1.42,8.72,1.42,3.48,0,6.59-.55,9.32-1.66,2.73-1.1,4.87-2.65,6.44-4.63,1.57-1.98,2.35-4.3,2.35-6.96,0-2.42-.69-4.4-2.05-5.95-1.37-1.54-3.22-2.82-5.55-3.83-2.33-1.01-4.96-1.9-7.88-2.67l-9.66-2.63c-6.54-1.78-11.73-4.4-15.54-7.86-3.82-3.46-5.73-8.03-5.73-13.73,0-4.71,1.28-8.82,3.83-12.33,2.55-3.51,6.01-6.24,10.37-8.2,4.36-1.96,9.28-2.93,14.76-2.93s10.42.97,14.66,2.91c4.24,1.94,7.59,4.61,10.04,8,2.45,3.39,3.72,7.28,3.83,11.67h-11.89Z"/>
    </g>
  </g>
</svg>