<?xml version="1.0" encoding="UTF-8"?>
<svg id="Layer_2" xmlns="http://www.w3.org/2000/svg" version="1.1" viewBox="0 0 979.49 134.46">
  <!-- Generator: Adobe Illustrator 30.1.0, SVG Export Plug-In . SVG Version: 2.1.1 Build 136)  -->
  <defs>
    <style>
      .st0 {
        fill: #fff;
      }
    </style>
  </defs>
  <g>
    <polygon id="logoMark_PathItem_" class="st0" points="167.25 52.51 167.25 88.15 90.95 132.22 90.95 96.58 167.25 52.51"/>
    <path id="logoMark_PathItem_-2" class="st0" d="M76.35,96.58v35.64L0,88.15v-35.64l34.5,19.9s.08.05.13.08l41.72,24.1h0Z"/>
    <polygon id="logoMark_PathItem_-3" class="st0" points="114.52 66.12 83.65 83.95 52.76 66.12 83.65 48.29 114.52 66.12"/>
    <polygon id="logoMark_PathItem_-4" class="st0" points="159.98 39.88 129.09 57.71 90.95 35.66 90.95 0 159.98 39.88"/>
    <polygon id="logoMark_PathItem_-5" class="st0" points="76.35 0 76.35 35.66 38.16 57.69 7.27 39.88 76.35 0"/>
  </g>
  <g>
    <path class="st0" d="M186.74,24.54V1.78h107.19v22.75h-39.96v107.76h-27.28V24.54h-39.96,0Z"/>
    <path class="st0" d="M306.32,132.3V34.41h26.32v17.08h1.02c1.78-6.07,4.78-10.67,8.99-13.8,4.21-3.12,9.05-4.68,14.53-4.68,1.36,0,2.83.09,4.4.26,1.57.17,2.95.4,4.14.7v24.09c-1.27-.38-3.04-.72-5.29-1.02-2.25-.3-4.31-.45-6.18-.45-3.99,0-7.55.86-10.67,2.58-3.12,1.72-5.59,4.11-7.39,7.17-1.81,3.06-2.71,6.59-2.71,10.58v55.38h-27.15Z"/>
    <path class="st0" d="M447.82,90.62v-56.21h27.15v97.88h-26.06v-17.78h-1.02c-2.21,5.74-5.87,10.35-10.99,13.83-5.12,3.48-11.35,5.23-18.7,5.23-6.54,0-12.3-1.49-17.27-4.46-4.97-2.97-8.85-7.2-11.63-12.68-2.78-5.48-4.2-12.04-4.24-19.69v-62.33h27.15v57.48c.04,5.78,1.59,10.35,4.65,13.7,3.06,3.36,7.16,5.03,12.3,5.03,3.27,0,6.33-.75,9.18-2.26,2.85-1.51,5.15-3.75,6.91-6.72,1.76-2.97,2.62-6.65,2.58-11.02h0Z"/>
    <path class="st0" d="M546.63,134.21c-10.07,0-18.73-2.05-25.97-6.15-7.24-4.1-12.82-9.92-16.73-17.46-3.91-7.54-5.86-16.47-5.86-26.8s1.95-18.91,5.86-26.51c3.91-7.6,9.42-13.53,16.54-17.78,7.12-4.25,15.48-6.37,25.08-6.37,6.46,0,12.48,1.03,18.07,3.09,5.59,2.06,10.47,5.15,14.66,9.27,4.18,4.12,7.45,9.29,9.78,15.52,2.34,6.22,3.5,13.5,3.5,21.83v7.46h-82.65v-16.82h57.1c0-3.91-.85-7.37-2.55-10.39-1.7-3.02-4.05-5.38-7.04-7.11-3-1.72-6.47-2.58-10.42-2.58s-7.76.95-10.93,2.84c-3.17,1.89-5.64,4.42-7.42,7.58-1.78,3.17-2.7,6.68-2.74,10.55v16c0,4.84.9,9.03,2.71,12.55,1.81,3.53,4.37,6.25,7.68,8.16s7.24,2.87,11.79,2.87c3.02,0,5.78-.42,8.28-1.27,2.51-.85,4.65-2.12,6.44-3.82,1.78-1.7,3.14-3.78,4.08-6.25l25.11,1.66c-1.27,6.03-3.88,11.29-7.81,15.77-3.93,4.48-8.99,7.97-15.17,10.45-6.18,2.49-13.31,3.73-21.38,3.73h0Z"/>
    <path class="st0" d="M723.5,1.78v130.51h-18.1l-66.34-95.72h-1.21v95.72h-19.69V1.78h18.23l66.4,95.85h1.21V1.78h19.5Z"/>
    <path class="st0" d="M768.59,132.3h-20.9L794.65,1.78h22.75l46.97,130.51h-20.9l-36.9-106.81h-1.02l-36.96,106.81ZM772.09,81.19h67.81v16.57h-67.81v-16.57Z"/>
    <path class="st0" d="M958.72,36.07c-.68-6.03-3.48-10.72-8.41-14.05-4.93-3.33-11.13-5-18.61-5-5.35,0-9.98.84-13.89,2.52-3.91,1.68-6.94,3.97-9.08,6.88-2.15,2.91-3.22,6.21-3.22,9.91,0,3.1.73,5.78,2.2,8.03,1.47,2.25,3.4,4.13,5.8,5.64,2.4,1.51,4.98,2.76,7.74,3.76,2.76,1,5.42,1.82,7.97,2.45l12.75,3.31c4.16,1.02,8.43,2.4,12.81,4.14,4.38,1.74,8.43,4.04,12.17,6.88,3.74,2.85,6.76,6.37,9.08,10.58,2.31,4.21,3.47,9.24,3.47,15.1,0,7.39-1.9,13.96-5.7,19.69-3.8,5.74-9.3,10.26-16.51,13.57-7.2,3.31-15.9,4.97-26.1,4.97s-18.23-1.55-25.36-4.65c-7.14-3.1-12.72-7.51-16.76-13.22-4.04-5.71-6.27-12.5-6.69-20.36h19.76c.38,4.72,1.92,8.63,4.62,11.76,2.7,3.12,6.16,5.44,10.39,6.95,4.23,1.51,8.87,2.26,13.92,2.26,5.56,0,10.52-.88,14.88-2.64,4.35-1.76,7.78-4.23,10.29-7.39,2.51-3.16,3.76-6.87,3.76-11.12,0-3.87-1.09-7.03-3.28-9.5-2.19-2.46-5.14-4.5-8.86-6.12-3.72-1.61-7.91-3.04-12.59-4.27l-15.42-4.21c-10.45-2.85-18.73-7.03-24.82-12.55-6.1-5.52-9.14-12.83-9.14-21.92,0-7.52,2.04-14.08,6.12-19.69,4.08-5.61,9.6-9.97,16.57-13.1,6.97-3.12,14.83-4.68,23.58-4.68s16.64,1.55,23.42,4.65c6.78,3.1,12.12,7.36,16.03,12.78,3.91,5.42,5.95,11.63,6.12,18.64h-18.99Z"/>
  </g>
</svg>